<svg width="24" height="27" viewBox="0 0 24 27" fill="none" xmlns="http://www.w3.org/2000/svg">
<path d="M8 12.1667H5.33333V14.8334H8V12.1667ZM13.3333 12.1667H10.6667V14.8334H13.3333V12.1667ZM18.6667 12.1667H16V14.8334H18.6667V12.1667ZM21.3333 2.83335H20V0.166687H17.3333V2.83335H6.66667V0.166687H4V2.83335H2.66667C1.18667 2.83335 0.0133333 4.03335 0.0133333 5.50002L0 24.1667C0 25.6334 1.18667 26.8334 2.66667 26.8334H21.3333C22.8 26.8334 24 25.6334 24 24.1667V5.50002C24 4.03335 22.8 2.83335 21.3333 2.83335ZM21.3333 24.1667H2.66667V9.50002H21.3333V24.1667Z" fill="#15726C"/>
</svg>
