<svg width="28" height="25" viewBox="0 0 28 25" fill="none" xmlns="http://www.w3.org/2000/svg">
<path d="M14 5.83333V0.5H0.666656V24.5H27.3333V5.83333H14ZM5.99999 21.8333H3.33332V19.1667H5.99999V21.8333ZM5.99999 16.5H3.33332V13.8333H5.99999V16.5ZM5.99999 11.1667H3.33332V8.5H5.99999V11.1667ZM5.99999 5.83333H3.33332V3.16667H5.99999V5.83333ZM11.3333 21.8333H8.66666V19.1667H11.3333V21.8333ZM11.3333 16.5H8.66666V13.8333H11.3333V16.5ZM11.3333 11.1667H8.66666V8.5H11.3333V11.1667ZM11.3333 5.83333H8.66666V3.16667H11.3333V5.83333ZM24.6667 21.8333H14V19.1667H16.6667V16.5H14V13.8333H16.6667V11.1667H14V8.5H24.6667V21.8333ZM22 11.1667H19.3333V13.8333H22V11.1667ZM22 16.5H19.3333V19.1667H22V16.5Z" fill="#15726C"/>
</svg>
