<svg width="22" height="29" viewBox="0 0 22 29" fill="none" xmlns="http://www.w3.org/2000/svg">
<path d="M13 0.393333C13 0.393333 13.9867 3.92667 13.9867 6.79333C13.9867 9.54 12.1867 11.7667 9.44001 11.7667C6.68001 11.7667 4.60001 9.54 4.60001 6.79333L4.64001 6.31333C1.94668 9.51333 0.333344 13.66 0.333344 18.1667C0.333344 24.06 5.10668 28.8333 11 28.8333C16.8933 28.8333 21.6667 24.06 21.6667 18.1667C21.6667 10.98 18.2133 4.56667 13 0.393333ZM10.6133 24.8333C8.24001 24.8333 6.32001 22.9667 6.32001 20.6467C6.32001 18.4867 7.72001 16.9667 10.0667 16.4867C12.4267 16.0067 14.8667 14.8733 16.2267 13.0467C16.7467 14.7667 17.0133 16.58 17.0133 18.4333C17.0133 21.9667 14.1467 24.8333 10.6133 24.8333Z" fill="#15726C"/>
</svg>
